<?xml version="1.0" encoding="utf-8"?>
<!-- Generator: Adobe Illustrator 27.3.1, SVG Export Plug-In . SVG Version: 6.00 Build 0)  -->
<svg version="1.1" id="Layer_1" xmlns="http://www.w3.org/2000/svg" xmlns:xlink="http://www.w3.org/1999/xlink" x="0px" y="0px"
	 viewBox="0 0 16 16" style="enable-background:new 0 0 16 16;" xml:space="preserve">
<style type="text/css">
	.st0{fill:#F5EFF2;}
</style>
<path class="st0" d="M8,3.9C5.7,3.9,3.9,5.7,3.9,8c0,2.3,1.8,4.1,4.1,4.1c2.3,0,4.1-1.8,4.1-4.1C12.1,5.7,10.3,3.9,8,3.9L8,3.9z
	 M8,10.7c-1.5,0-2.7-1.2-2.7-2.7c0-1.5,1.2-2.7,2.7-2.7c1.5,0,2.7,1.2,2.7,2.7C10.7,9.5,9.5,10.7,8,10.7L8,10.7z"/>
<path class="st0" d="M11.3,0.1C9.8,0,6.2,0,4.7,0.1C3.4,0.1,2.3,0.4,1.4,1.3C-0.2,2.9,0,5,0,8c0,3.1-0.2,5.1,1.3,6.7
	C2.9,16.2,5,16,8,16c3.1,0,4.1,0,5.2-0.4c1.5-0.6,2.6-1.9,2.7-4.3c0.1-1.5,0.1-5.1,0-6.6C15.8,1.9,14.3,0.2,11.3,0.1L11.3,0.1z
	 M13.6,13.6c-1,1-2.4,0.9-5.6,0.9c-3.3,0-4.7,0-5.6-0.9C1.2,12.5,1.4,10.7,1.4,8c0-3.7-0.4-6.3,3.3-6.5c0.8,0,1.1,0,3.2,0l0,0
	c3.6,0,6.3-0.4,6.5,3.3c0,0.8,0,1.1,0,3.2C14.6,11.3,14.6,12.6,13.6,13.6L13.6,13.6z"/>
<path class="st0" d="M12.3,4.7c0.5,0,1-0.4,1-1s-0.4-1-1-1c-0.5,0-1,0.4-1,1S11.7,4.7,12.3,4.7z"/>
</svg>
